<svg width="590" height="676" viewBox="0 0 590 676" fill="none" xmlns="http://www.w3.org/2000/svg">
<path d="M294.325 453.993C170.645 453.183 67.8713 355.079 68.0001 226.75C68.1289 100.275 168.227 -0.0809252 296.489 4.89668e-05C423.477 0.0773425 523.973 103.058 521.971 231.98C520.013 358.962 415.075 454.563 294.325 453.993ZM382.418 217.802C391.619 211.81 401.187 207.128 408.823 200.301C425.159 185.674 435.077 166.395 444.074 146.703C446.386 141.65 443.78 139.342 439.261 139.084C429.987 138.528 420.688 138.4 411.395 138.197C404.506 138.046 399.987 141.377 397.113 147.631C393.37 155.835 389.679 164.116 385.156 171.893C382.613 176.27 378.44 179.696 374.146 184.511C372.703 180.628 371.978 179.038 371.514 177.378C357.192 125.999 323.618 96.8635 270.585 91.1364C220.874 85.7627 168.234 112.705 149.639 166.122C137.807 200.102 136.199 234.604 144.119 269.346C152.73 307.061 173.887 335.796 210.404 350.519C243.477 363.85 277.628 363.305 311.29 352.127C332.587 345.053 348.768 331.379 358.211 310.477C361.155 303.97 359.171 300.613 352.187 299.803C343.814 298.846 335.413 298.055 327.111 296.678C319.246 295.372 312.335 294.705 307.93 303.671C306.281 307.028 302.41 309.719 298.943 311.684C283.671 320.382 267.037 322.472 249.936 319.811C208.351 313.344 191.183 276.674 187.857 246.301C187.12 239.437 191.117 238.752 196.416 238.76C242.13 238.833 287.844 238.59 333.554 239.08C339.811 239.146 346.965 241.395 352.106 244.947C361.387 251.359 370.307 258.753 377.848 267.119C389.9 280.491 400.458 295.202 412.205 308.872C415.355 312.553 420.32 316.337 424.806 316.83C435.448 317.997 446.319 317.503 457.069 317.021C459.763 316.9 463.226 314.831 464.631 312.604C465.419 311.349 463.248 307.422 461.514 305.512C436.473 277.939 411.35 250.441 386.146 223.018C384.682 221.372 383.563 219.392 382.433 217.802H382.418Z" fill="#EA7629"/>
<path d="M382.433 217.802C383.563 219.392 384.682 221.372 386.176 223.01C411.296 250.51 436.419 278.008 461.544 305.504C463.277 307.415 465.448 311.342 464.661 312.597C463.255 314.842 459.792 316.911 457.098 317.014C446.349 317.496 435.478 317.989 424.835 316.822C420.349 316.329 415.385 312.531 412.235 308.865C400.488 295.195 389.93 280.484 377.877 267.112C370.337 258.746 361.416 251.351 352.135 244.94C346.983 241.388 339.851 239.139 333.584 239.073C287.874 238.583 242.16 238.826 196.446 238.752C191.147 238.752 187.135 239.43 187.886 246.294C191.198 276.667 208.391 313.337 249.965 319.804C267.067 322.465 283.7 320.374 298.973 311.677C302.425 309.711 306.311 307.021 307.96 303.664C312.376 294.698 319.276 295.364 327.14 296.671C335.442 298.047 343.844 298.839 352.216 299.796C359.208 300.594 361.181 303.951 358.241 310.47C348.797 331.372 332.616 345.046 311.32 352.12C277.658 363.298 243.507 363.843 210.434 350.511C173.917 335.789 152.76 307.054 144.148 269.338C136.214 234.597 137.822 200.095 149.668 166.115C168.264 112.698 220.904 85.7553 270.614 91.1291C323.648 96.8562 357.221 125.992 371.544 177.37C372.008 179.03 372.733 180.62 374.175 184.503C378.47 179.689 382.639 176.262 385.186 171.886C389.709 164.109 393.4 155.827 397.143 147.623C400.002 141.366 404.536 138.054 411.425 138.19C420.717 138.392 430.017 138.521 439.29 139.077C443.81 139.349 446.415 141.653 444.104 146.696C435.106 166.387 425.188 185.666 408.853 200.293C401.209 207.136 391.645 211.81 382.433 217.802ZM257.44 198.887V198.549C277.805 198.549 298.167 198.504 318.529 198.578C324.119 198.6 327.538 197.003 326.529 190.481C323.486 170.808 316.151 153.49 299.297 141.62C258.039 112.543 199.655 137.903 191.102 188.526C189.398 198.655 189.487 198.832 199.795 198.876C219.034 198.931 238.237 198.887 257.44 198.887Z" fill="white"/>
<path d="M257.439 198.887C238.237 198.887 219.034 198.931 199.831 198.887C189.527 198.854 189.435 198.667 191.139 188.537C199.673 137.914 258.058 112.543 299.333 141.631C316.173 153.501 323.508 170.819 326.566 190.492C327.574 197.018 324.156 198.615 318.565 198.589C298.2 198.516 277.838 198.56 257.476 198.56L257.439 198.887Z" fill="#EA7629"/>
<path d="M152.996 605.603C150.242 617.384 143.395 624.158 135.422 629.665C99.3314 654.601 39.4106 643.548 14.7495 607.645C6.34771 595.415 2.36315 581.616 0.997779 567.098C-1.33078 542.326 -0.30341 517.957 11.9477 495.343C28.1902 465.362 61.3511 449.61 96.8812 455.069C131.326 460.359 156.025 483.586 162.666 517.494C164.406 526.374 164.822 535.508 166.079 544.493C167.188 552.413 164.467 555.101 156.075 555.006C117.308 554.556 78.5332 554.796 39.7622 554.817C28.5722 554.817 28.4944 554.952 29.7517 566.175C33.9897 604.035 64.4672 626.893 100.257 618.019C107.831 616.14 114.401 610.194 121.424 606.103C123.624 604.822 125.878 602.25 127.957 602.385C136.112 602.973 144.203 604.403 152.996 605.603ZM82.8895 532.878C97.8579 532.878 112.83 532.915 127.798 532.855C131.928 532.855 136.494 532.773 135.649 526.665C134.064 515.202 131.593 504.037 123.726 494.869C108.433 477.085 88.7632 473.705 67.6 479.658C45.6933 485.83 35.3212 502.709 31.2555 524.279C29.9915 530.968 32.6074 532.997 38.7819 532.936C53.4833 532.79 68.1848 532.885 82.8895 532.878Z" fill="#EA7629"/>
<path d="M321.369 580.703C320.694 603.183 334.989 618.472 355.504 618.07C366.376 617.857 375.149 613.138 379.523 603.534C383.2 595.445 388.11 594.6 395.305 596.733C397.333 597.331 399.462 597.571 401.514 597.97C400.797 614.247 383.838 630.249 363.091 632.747C326.591 637.142 302.048 615.592 301.494 578.662C301.301 565.918 302.697 553.536 309.085 542.252C319.852 523.224 340.157 514.334 363.159 518.329C383.298 521.831 398.442 537.597 402.126 558.893C405.843 580.345 405.843 580.342 384.359 580.342C366.195 580.342 348.03 580.342 329.866 580.342C327.013 580.325 324.161 580.572 321.369 580.703ZM383.244 564.539C383.45 551.768 378.556 542.505 368.299 536.607C357.39 530.333 346.034 530.934 335.723 537.898C326.706 543.983 322.258 552.974 322.099 564.539H383.244Z" fill="black"/>
<path d="M218.994 630.395H200.129V620.592C200.129 577.826 200.129 535.062 200.129 492.3C200.129 475.801 201.173 474.996 218.784 478.62V564.623C222.164 561.52 224.043 559.945 225.753 558.2C235.145 548.705 245.504 539.946 253.591 529.437C262.439 517.944 273.429 519.495 284.94 520.178C275.342 530.319 266.069 540.437 256.433 550.203C242.996 563.819 244.162 558.653 253.875 573.709C264.45 590.087 275.603 606.09 286.455 622.289C288.043 624.655 289.374 627.2 291.48 630.777C284.281 630.777 278.184 631.247 272.216 630.54C269.908 630.266 267.332 627.724 265.872 625.547C255.892 610.694 246.186 595.655 236.362 580.697C235.077 578.743 233.617 576.911 232.066 574.788C223.364 580.812 217.584 587.197 218.744 598.548C219.822 608.838 218.994 619.297 218.994 630.395Z" fill="black"/>
<path d="M497.597 657.813C498.584 657.813 499.597 657.745 500.601 657.813C522.586 659.527 535.029 642.239 527.05 621.518C514.664 589.34 502.578 557.048 490.391 524.792C489.945 523.606 489.786 522.311 489.222 519.918C495.119 519.918 500.419 519.445 505.549 520.175C507.347 520.432 509.405 523.4 510.186 525.55C519.311 550.666 528.236 575.863 537.223 601.04C537.926 603.01 538.652 604.974 540.041 608.794C542.268 601.591 543.759 596.003 545.709 590.594C553.641 568.734 561.593 546.873 569.964 525.188C570.877 522.822 574.5 520.753 577.251 520.056C580.736 519.174 584.608 519.843 589.566 519.843C588.008 524.461 586.863 528.149 585.511 531.763C571.482 569.599 557.501 607.456 543.283 645.221C541.039 651.184 538.017 656.934 534.732 662.407C530.423 669.59 524.032 674.745 515.543 675.563C498.905 677.169 496.262 675.009 497.597 657.813Z" fill="black"/>
<path d="M446.953 630.567H429.014V520.405H444.283C444.733 524.799 445.152 528.876 445.73 534.541C447.866 531.969 449.048 530.694 450.059 529.298C458.684 517.372 467.859 514.763 481.435 519.722C487.302 521.862 489.063 524.728 485.91 530.38C484.376 533.128 483.413 536.194 482.311 538.831C481.26 539.068 480.699 539.385 480.266 539.26C459.921 533.436 449.322 540.474 447.899 562.564C446.666 581.745 447.196 601.04 446.96 620.284C446.919 623.431 446.953 626.582 446.953 630.567Z" fill="black"/>
</svg>
